<?xml version="1.0" encoding="iso-8859-1"?>
<!-- Generator: Adobe Illustrator 19.0.0, SVG Export Plug-In . SVG Version: 6.00 Build 0)  -->
<svg version="1.1" id="Capa_1" xmlns="http://www.w3.org/2000/svg" xmlns:xlink="http://www.w3.org/1999/xlink" x="0px" y="0px"
	 viewBox="0 0 512.533 512.533" style="enable-background:new 0 0 512.533 512.533;" xml:space="preserve">
<g>
	<g>
		<path d="M510.933,245.6c-4.267-6.4-93.867-160-253.867-160S7.467,239.2,3.2,245.6c-4.267,6.4-4.267,14.933,0,21.333
			c4.267,6.4,93.867,160,253.867,160s249.6-153.6,253.867-160C513.067,260.533,513.067,252,510.933,245.6z M257.067,362.933
			C197.333,362.933,150.4,316,150.4,256.267S197.333,149.6,257.067,149.6s106.667,46.933,106.667,106.667
			S316.8,362.933,257.067,362.933z"/>
	</g>
</g>
<g>
	<g>
		<path d="M257.067,192.267c-36.267,0-64,27.733-64,64s27.733,64,64,64s64-27.733,64-64S293.333,192.267,257.067,192.267z
			 M278.4,256.267c-12.8,0-21.333-8.533-21.333-21.333c0-12.8,8.533-21.333,21.333-21.333c12.8,0,21.333,8.533,21.333,21.333
			C299.733,247.733,291.2,256.267,278.4,256.267z"/>
	</g>
</g>
<g>
</g>
<g>
</g>
<g>
</g>
<g>
</g>
<g>
</g>
<g>
</g>
<g>
</g>
<g>
</g>
<g>
</g>
<g>
</g>
<g>
</g>
<g>
</g>
<g>
</g>
<g>
</g>
<g>
</g>
</svg>
